<svg width="21" height="16" viewBox="0 0 21 16" fill="none" xmlns="http://www.w3.org/2000/svg">
<path d="M17.4825 1.29748C16.1983 0.69693 14.8211 0.254475 13.3812 0.00106303C13.355 -0.00382775 13.3288 0.00839457 13.3153 0.0328398C13.1382 0.353882 12.942 0.772707 12.8046 1.1019C11.2559 0.865606 9.7151 0.865606 8.19815 1.1019C8.06073 0.76539 7.85743 0.353882 7.67952 0.0328398C7.66601 0.00921019 7.63981 -0.00301214 7.61359 0.00106303C6.17448 0.253666 4.79732 0.696121 3.51228 1.29748C3.50115 1.30236 3.49162 1.31052 3.48529 1.3211C0.873104 5.29834 0.157517 9.17782 0.50856 13.0092C0.510148 13.0279 0.520473 13.0459 0.534769 13.0573C2.25821 14.3471 3.92766 15.1302 5.56611 15.6493C5.59233 15.6574 5.62012 15.6476 5.6368 15.6256C6.02438 15.0862 6.36987 14.5175 6.66609 13.9194C6.68357 13.8843 6.66689 13.8428 6.63116 13.8289C6.08315 13.6171 5.56134 13.3588 5.0594 13.0654C5.0197 13.0418 5.01652 12.9839 5.05304 12.9562C5.15867 12.8755 5.26433 12.7916 5.36519 12.7069C5.38343 12.6914 5.40886 12.6881 5.43032 12.6979C8.72787 14.2323 12.2979 14.2323 15.5565 12.6979C15.578 12.6873 15.6034 12.6906 15.6224 12.7061C15.7233 12.7908 15.829 12.8755 15.9354 12.9562C15.9719 12.9839 15.9695 13.0418 15.9298 13.0654C15.4279 13.3645 14.9061 13.6171 14.3573 13.8281C14.3215 13.842 14.3056 13.8843 14.3231 13.9194C14.6257 14.5166 14.9712 15.0854 15.3516 15.6248C15.3675 15.6476 15.3961 15.6574 15.4223 15.6493C17.0687 15.1302 18.7381 14.3471 20.4616 13.0573C20.4767 13.0459 20.4862 13.0288 20.4878 13.01C20.9079 8.58051 19.7841 4.73285 17.5087 1.32191C17.5031 1.31052 17.4936 1.30236 17.4825 1.29748ZM7.15853 10.6763C6.16574 10.6763 5.3477 9.74739 5.3477 8.6066C5.3477 7.46582 6.14987 6.53691 7.15853 6.53691C8.1751 6.53691 8.98522 7.47397 8.96932 8.6066C8.96932 9.74739 8.16716 10.6763 7.15853 10.6763ZM13.8537 10.6763C12.861 10.6763 12.0429 9.74739 12.0429 8.6066C12.0429 7.46582 12.8451 6.53691 13.8537 6.53691C14.8703 6.53691 15.6804 7.47397 15.6646 8.6066C15.6646 9.74739 14.8703 10.6763 13.8537 10.6763Z" fill="#74B4FF"/>
</svg>
