<svg width="45" height="46" viewBox="0 0 45 46" fill="none" xmlns="http://www.w3.org/2000/svg">
<rect width="45" height="46" rx="4" fill="#0075FF"/>
<path d="M27.4914 25.0172C30.8098 25.0172 33.5 22.3271 33.5 19.0086C33.5 15.6902 30.8098 13 27.4914 13C24.1729 13 21.4828 15.6902 21.4828 19.0086C21.4828 19.4471 21.5297 19.8745 21.6189 20.2863L13 28.9052V33.5H17.5948L18.6552 32.4397V29.9655H21.1293L22.8966 28.1983V25.7241H25.3707L26.2137 24.8811C26.6254 24.9703 27.053 25.0172 27.4914 25.0172Z" stroke="white" stroke-width="1.5" stroke-linecap="round" stroke-linejoin="round"/>
<path d="M29.612 17.5948C29.612 17.9852 29.2955 18.3017 28.9051 18.3017C28.5148 18.3017 28.1982 17.9852 28.1982 17.5948C28.1982 17.2044 28.5148 16.8879 28.9051 16.8879C29.2955 16.8879 29.612 17.2044 29.612 17.5948Z" stroke="white"/>
</svg>
